<?xml version="1.0" encoding="utf-8"?>
<!-- Generator: Adobe Illustrator 27.4.1, SVG Export Plug-In . SVG Version: 6.00 Build 0)  -->
<svg version="1.1" id="_x3C_Layer_x3E_" xmlns="http://www.w3.org/2000/svg" xmlns:xlink="http://www.w3.org/1999/xlink" x="0px"
	 y="0px" viewBox="0 0 1104.9 860.7" style="enable-background:new 0 0 1104.9 860.7;" xml:space="preserve">
<style type="text/css">
	.st0{fill:#E8DAC5;}
	.st1{fill:#CEBA9F;}
	.st2{fill:#BCA68B;}
	.st3{fill:#6F7D87;}
	.st4{fill:#84785E;}
	.st5{fill:#333333;}
	.st6{fill:#938972;}
	.st7{fill:#AA9F88;}
	.st8{fill:#D6C8B0;}
	.st9{fill:#C6BAA3;}
	.st10{fill:#8FA0AA;}
	.st11{fill:#68635A;}
	.st12{fill:#968E81;}
</style>
<g>
	<g>
		<g>
			<polygon class="st0" points="456.3,505.5 456.3,415.5 470.8,415.5 470.8,434.1 485.7,434.1 485.7,417.9 502.7,417.9 502.7,508.6 
							"/>
		</g>
		<g>
			<polygon class="st1" points="316.6,686.4 316.6,548.1 444.6,548.1 444.6,480.6 465.4,480.6 471.9,487.1 484,487.1 484,481.6 
				498.2,481.6 498.2,548.1 727,548.1 727,745.8 424.6,745.8 			"/>
		</g>
		<g>
			<polygon class="st0" points="301.1,686.4 301.1,368.7 282.2,368.7 282.2,392.5 262.9,392.5 262.9,368.7 243.9,368.7 243.9,392.3 
				224.4,392.3 224.4,368.7 205.5,368.7 205.5,392.3 186,392.3 186,368.7 167.1,368.7 167.1,392.3 147.6,392.3 147.6,368.7 
				128.7,368.7 128.7,492.7 81.6,523.3 81.6,680.1 81.6,684.6 			"/>
		</g>
		<g>
			<rect x="748.3" y="565.4" class="st1" width="78.9" height="180.4"/>
		</g>
		<g>
			<path class="st1" d="M316.6,535.7V417.7h14.5v15.1H346v-15.1h14.5v18.6h14.9v-18.6H390v18.6h14.8v-18.6h19.8v111.7
				c0,0,5.3,4.4,0,4.4C419.3,533.9,316.6,535.7,316.6,535.7z"/>
		</g>
		<g>
			<path class="st2" d="M578,548.5v-84.2h16.3V448h13.2v16.3h14.9V448h14.5v16.3h14.9V448h13.6v-67.5h122.2v23.9h-50.1v143.6
				C737.6,548.1,578,545.3,578,548.5z"/>
		</g>
		<g>
			<polygon class="st0" points="534.1,535.7 534.1,445.7 548.6,445.7 548.6,464.3 563.6,464.3 563.6,448 580.5,448 580.5,538.8 			
				"/>
		</g>
		<g>
			<polygon class="st3" points="462.2,481.6 476.7,463.5 489.7,477.5 482.8,489.9 471.9,487.1 			"/>
		</g>
		<g>
			<g>
				<polygon class="st4" points="128.7,364.3 128.7,333.1 117.8,333.1 117.8,348.3 106.5,348.3 106.5,333.1 95.6,333.1 95.6,348.3 
					84.3,348.3 84.3,333.1 73.4,333.1 73.4,361.6 				"/>
				<path class="st5" d="M128.7,367c-1.5,0-2.7-1.2-2.7-2.7v-28.6h-5.6v12.6c0,1.5-1.2,2.7-2.7,2.7h-11.3c-1.5,0-2.7-1.2-2.7-2.7
					v-12.6h-5.6v12.6c0,1.5-1.2,2.7-2.7,2.7H84.3c-1.5,0-2.7-1.2-2.7-2.7v-12.6h-5.6v25.9c0,1.5-1.2,2.7-2.7,2.7
					c-1.5,0-2.7-1.2-2.7-2.7v-28.6c0-1.5,1.2-2.7,2.7-2.7h10.9c1.5,0,2.7,1.2,2.7,2.7v12.6h5.9v-12.6c0-1.5,1.2-2.7,2.7-2.7h10.9
					c1.5,0,2.7,1.2,2.7,2.7v12.6h5.9v-12.6c0-1.5,1.2-2.7,2.7-2.7h10.9c1.5,0,2.7,1.2,2.7,2.7v31.2C131.4,365.8,130.2,367,128.7,367
					z"/>
			</g>
			<g>
				<g>
					<path class="st6" d="M528.5,686.4v-84.5c0-14.2,8.9-26.9,22.3-31.7l0,0l0,0c13.4,4.8,22.3,17.5,22.3,31.7v100.4L528.5,686.4z"
						/>
					<path class="st5" d="M573.2,705c-1.5,0-2.7-1.2-2.7-2.7V601.9c0-12.7-7.9-24.2-19.7-28.8c-11.8,4.6-19.7,16.1-19.7,28.8v84.5
						c0,1.5-1.2,2.7-2.7,2.7c-1.5,0-2.7-1.2-2.7-2.7v-84.5c0-15.3,9.7-29,24.1-34.2c0.6-0.2,1.2-0.2,1.8,0
						c14.4,5.2,24.1,18.9,24.1,34.2v100.4C575.8,703.8,574.6,705,573.2,705z"/>
				</g>
				<g>
					<path class="st6" d="M589,713.1V601.9c0-14.2,8.9-26.9,22.3-31.7l0,0l0,0c13.4,4.8,22.3,17.5,22.3,31.7V740L589,713.1z"/>
					<path class="st5" d="M633.6,742.7c-1.5,0-2.7-1.2-2.7-2.7V601.9c0-12.7-7.9-24.2-19.7-28.8c-11.8,4.6-19.7,16.1-19.7,28.8
						v111.1c0,1.5-1.2,2.7-2.7,2.7c-1.5,0-2.7-1.2-2.7-2.7V601.9c0-15.3,9.7-29,24.1-34.2c0.6-0.2,1.2-0.2,1.8,0
						c14.4,5.2,24.1,18.9,24.1,34.2V740C636.3,741.5,635.1,742.7,633.6,742.7z"/>
				</g>
				<g>
					<path class="st6" d="M648.8,745.4V601.9c0-14.2,8.9-26.9,22.3-31.7l0,0l0,0c13.4,4.8,22.3,17.5,22.3,31.7v143.4L648.8,745.4z"
						/>
					<path class="st5" d="M648.8,748c-1.5,0-2.7-1.2-2.7-2.7V601.9c0-15.3,9.7-29,24.1-34.2c0.6-0.2,1.2-0.2,1.8,0
						c14.4,5.2,24.1,18.9,24.1,34.2v143.4c0,1.5-1.2,2.7-2.7,2.7c-1.5,0-2.7-1.2-2.7-2.7V601.9c0-12.7-7.9-24.2-19.7-28.8
						c-11.8,4.6-19.7,16.1-19.7,28.8v143.4C651.4,746.8,650.3,748,648.8,748z"/>
				</g>
				<g>
					<path class="st6" d="M424.6,686.4H380v-84.5c0-14.2,8.9-26.9,22.3-31.7l0,0l0,0c13.4,4.8,22.3,17.5,22.3,31.7V686.4z"/>
					<path class="st5" d="M424.6,689.1H380c-1.5,0-2.7-1.2-2.7-2.7v-84.5c0-15.3,9.7-29,24.1-34.2c0.6-0.2,1.2-0.2,1.8,0
						c14.4,5.2,24.1,18.9,24.1,34.2v84.5C427.3,687.9,426.1,689.1,424.6,689.1z M382.6,683.7h39.3v-81.8c0-12.7-7.9-24.2-19.7-28.8
						c-11.8,4.6-19.7,16.1-19.7,28.8V683.7z"/>
				</g>
				<g>
					<rect x="380" y="609.3" class="st7" width="44.6" height="37.7"/>
					<path class="st5" d="M424.6,649.6H380c-1.5,0-2.7-1.2-2.7-2.7v-37.7c0-1.5,1.2-2.7,2.7-2.7h44.6c1.5,0,2.7,1.2,2.7,2.7v37.7
						C427.3,648.4,426.1,649.6,424.6,649.6z M382.6,644.3h39.3v-32.4h-39.3V644.3z"/>
				</g>
			</g>
			<g>
				<path class="st7" d="M145.7,433.7L145.7,433.7c13.6-10.9,33-10.9,46.6,0l0,0v43.6h-46.6V433.7z"/>
				<path class="st5" d="M192.3,480h-46.6c-1.5,0-2.7-1.2-2.7-2.7v-43.6c0-0.8,0.4-1.6,1-2.1c7.1-5.6,15.9-8.7,25-8.7
					c9,0,17.9,3.1,25,8.7c0.6,0.5,1,1.3,1,2.1v43.6C195,478.8,193.8,480,192.3,480z M148.4,474.7h41.3V435
					c-5.9-4.4-13.2-6.8-20.6-6.8c-7.4,0-14.7,2.4-20.6,6.8V474.7z"/>
			</g>
			<g>
				<path class="st7" d="M167.7,522.4L167.7,522.4L167.7,522.4c-27.9,7.9-47.2,33.3-47.2,62.3v48.4h94.4v-48.4
					C214.9,555.7,195.6,530.2,167.7,522.4z"/>
				<path class="st5" d="M214.9,635.8h-94.4c-1.5,0-2.7-1.2-2.7-2.7v-48.4c0-30.1,20.2-56.8,49.1-64.9c0.5-0.1,1-0.1,1.4,0
					c28.9,8.2,49.1,34.8,49.1,64.9v48.4C217.6,634.6,216.4,635.8,214.9,635.8z M123.2,630.4h89.1v-45.7c0-27.4-18.3-51.8-44.5-59.6
					c-26.3,7.7-44.5,32.1-44.5,59.6V630.4z"/>
			</g>
			<g>
				<path class="st6" d="M781.9,745.8h-33.7v-135c0-11.2,6.8-21.2,16.8-24.6l0,0l0,0c10,3.4,16.9,13.3,16.9,24.6V745.8z"/>
				<path class="st5" d="M781.9,748.5h-33.7c-1.5,0-2.7-1.2-2.7-2.7v-135c0-12.4,7.5-23.3,18.7-27.1c0.5-0.2,1.1-0.2,1.7,0
					c11.2,3.8,18.7,14.6,18.7,27.1v135C784.6,747.3,783.4,748.5,781.9,748.5z M750.9,743.1h28.4V610.8c0-9.8-5.7-18.4-14.2-21.7
					c-8.5,3.3-14.2,11.9-14.2,21.7V743.1z"/>
			</g>
			<g>
				<path class="st6" d="M827.2,745.8h-33.7v-135c0-11.2,6.8-21.2,16.8-24.6l0,0l0,0c10,3.4,16.8,13.3,16.8,24.6V745.8z"/>
				<path class="st5" d="M827.2,748.5h-33.7c-1.5,0-2.7-1.2-2.7-2.7v-135c0-12.4,7.5-23.3,18.7-27.1c0.5-0.2,1.1-0.2,1.7,0
					c11.2,3.8,18.7,14.6,18.7,27.1v135C829.8,747.3,828.6,748.5,827.2,748.5z M796.1,743.1h28.4V610.8c0-9.8-5.7-18.4-14.2-21.7
					c-8.5,3.3-14.2,11.9-14.2,21.7V743.1z"/>
			</g>
			<g>
				<rect x="727" y="367.2" class="st7" width="21.3" height="378.6"/>
				<path class="st5" d="M748.3,748.5H727c-1.5,0-2.7-1.2-2.7-2.7V367.2c0-1.5,1.2-2.7,2.7-2.7h21.3c1.5,0,2.7,1.2,2.7,2.7v378.6
					C750.9,747.3,749.7,748.5,748.3,748.5z M729.6,743.1h16V369.9h-16V743.1z"/>
			</g>
			<g>
				<g>
					<rect x="827.2" y="396.5" class="st8" width="188" height="349.4"/>
					<path class="st5" d="M1015.1,748.5h-188c-1.5,0-2.7-1.2-2.7-2.7V396.5c0-1.5,1.2-2.7,2.7-2.7h188c1.5,0,2.7,1.2,2.7,2.7v349.4
						C1017.8,747.3,1016.6,748.5,1015.1,748.5z M829.8,743.1h182.7v-344H829.8V743.1z"/>
				</g>
				<g>
					<path class="st6" d="M914,745.8h-63.8V480.7c0-20.9,12.6-39.8,31.9-47.9l0,0l0,0c19.3,8.1,31.9,26.9,31.9,47.9V745.8z"/>
					<path class="st5" d="M914,748.5h-63.8c-1.5,0-2.7-1.2-2.7-2.7V480.7c0-22.1,13.2-41.8,33.5-50.3c0.7-0.3,1.4-0.3,2,0
						c20.4,8.5,33.5,28.2,33.5,50.3v265.1C916.7,747.3,915.5,748.5,914,748.5z M852.9,743.1h58.5V480.7c0-19.5-11.4-37.1-29.2-45
						c-17.8,7.9-29.2,25.4-29.2,45V743.1z"/>
				</g>
				<g>
					<path class="st6" d="M994.7,745.8h-63.8V480.7c0-20.9,12.6-39.8,31.9-47.9l0,0l0,0c19.3,8.1,31.9,26.9,31.9,47.9V745.8z"/>
					<path class="st5" d="M994.7,748.5h-63.8c-1.5,0-2.7-1.2-2.7-2.7V480.7c0-22.1,13.2-41.8,33.5-50.3c0.7-0.3,1.4-0.3,2,0
						c20.4,8.5,33.5,28.2,33.5,50.3v265.1C997.3,747.3,996.2,748.5,994.7,748.5z M933.5,743.1H992V480.7c0-19.5-11.4-37.1-29.2-45
						c-17.8,7.9-29.2,25.4-29.2,45V743.1z"/>
				</g>
				<g>
					<path class="st9" d="M882.1,609.7L882.1,609.7L882.1,609.7c11.3,4.3,18.4,16.1,18.4,26.1v52.4h-36.9v-52.4
						C863.7,625.8,870.9,614,882.1,609.7z"/>
					<path class="st5" d="M900.6,690.8h-36.9c-1.5,0-2.7-1.2-2.7-2.7v-52.4c0-12,8.7-24.3,20.2-28.6c0.6-0.2,1.3-0.2,1.9,0
						c11.5,4.3,20.2,16.6,20.2,28.6v52.4C903.2,689.6,902,690.8,900.6,690.8z M866.3,685.5h31.6v-49.7c0-8.2-5.9-19-15.8-23.2
						c-9.9,4.3-15.8,15-15.8,23.2V685.5z"/>
				</g>
				<g>
					<path class="st10" d="M882.1,619.9L882.1,619.9L882.1,619.9c6.1,3.7,9.9,11.7,9.9,20.4v47.9h-19.9v-47.9
						C872.2,631.5,876.1,623.6,882.1,619.9z"/>
					<path class="st5" d="M892.1,690.8h-19.9c-1.5,0-2.7-1.2-2.7-2.7v-47.9c0-9.6,4.4-18.5,11.2-22.7c0.9-0.5,1.9-0.5,2.8,0
						c6.8,4.2,11.2,13.1,11.2,22.7v47.9C894.7,689.6,893.5,690.8,892.1,690.8z M874.9,685.5h14.5v-45.2c0-7.1-2.8-13.6-7.3-17.2
						c-4.5,3.5-7.3,10.1-7.3,17.2V685.5z"/>
				</g>
				<g>
					<path class="st9" d="M962.8,609.7L962.8,609.7L962.8,609.7c11.2,4.3,18.4,16.1,18.4,26.1v52.4h-36.9v-52.4
						C944.3,625.8,951.5,614,962.8,609.7z"/>
					<path class="st5" d="M981.2,690.8h-36.9c-1.5,0-2.7-1.2-2.7-2.7v-52.4c0-12,8.7-24.3,20.2-28.6c0.6-0.2,1.3-0.2,1.9,0
						c11.5,4.3,20.2,16.6,20.2,28.6v52.4C983.9,689.6,982.7,690.8,981.2,690.8z M947,685.5h31.6v-49.7c0-8.2-5.9-19-15.8-23.2
						c-9.9,4.3-15.8,15-15.8,23.2V685.5z"/>
				</g>
				<g>
					<path class="st10" d="M962.8,619.9L962.8,619.9L962.8,619.9c6.1,3.7,9.9,11.7,9.9,20.4v47.9h-19.9v-47.9
						C952.8,631.5,956.7,623.6,962.8,619.9z"/>
					<path class="st5" d="M972.7,690.8h-19.9c-1.5,0-2.7-1.2-2.7-2.7v-47.9c0-9.6,4.4-18.5,11.2-22.7c0.9-0.5,1.9-0.5,2.8,0
						c6.8,4.2,11.2,13.1,11.2,22.7v47.9C975.4,689.6,974.2,690.8,972.7,690.8z M955.5,685.5H970v-45.2c0-7.1-2.8-13.6-7.3-17.2
						c-4.5,3.5-7.3,10.1-7.3,17.2V685.5z"/>
				</g>
				<g>
					<rect x="914" y="480.7" class="st7" width="16.4" height="227.7"/>
					<path class="st5" d="M930.5,711H914c-1.5,0-2.7-1.2-2.7-2.7V480.7c0-1.5,1.2-2.7,2.7-2.7h16.4c1.5,0,2.7,1.2,2.7,2.7v227.7
						C933.1,709.8,931.9,711,930.5,711z M916.7,705.7h11.1V483.3h-11.1V705.7z"/>
				</g>
				<g>
					<path class="st7" d="M882.1,475.6L882.1,475.6L882.1,475.6c10.4,4.9,17.1,15.3,17.1,26.8v62.9H865v-62.9
						C865,490.9,871.7,480.5,882.1,475.6z"/>
					<path class="st5" d="M899.2,568H865c-1.5,0-2.7-1.2-2.7-2.7v-62.9c0-12.5,7.3-24,18.6-29.2c0.7-0.3,1.5-0.3,2.2,0
						c11.3,5.3,18.6,16.8,18.6,29.2v62.9C901.9,566.8,900.7,568,899.2,568z M867.7,562.7h28.8v-60.3c0-10-5.6-19.2-14.4-23.9
						c-8.8,4.6-14.4,13.9-14.4,23.9V562.7z"/>
				</g>
				<g>
					<path class="st3" d="M877,630L877,630L877,630c2.9,3.2,4.8,9.9,4.8,17.4v40.8h-9.6v-40.8C872.2,639.9,874.1,633.2,877,630z"/>
					<path class="st5" d="M881.8,690.8h-9.6c-1.5,0-2.7-1.2-2.7-2.7v-40.8c0-8.2,2.1-15.5,5.5-19.2c1-1.1,2.9-1.1,3.9,0
						c3.4,3.7,5.5,11,5.5,19.2v40.8C884.5,689.6,883.3,690.8,881.8,690.8z M874.9,685.5h4.3v-38.1c0-4.7-0.8-9.2-2.2-12.4
						c-1.3,3.2-2.1,7.7-2.1,12.4V685.5z"/>
				</g>
				<g>
					<path class="st3" d="M887.2,630L887.2,630L887.2,630c2.9,3.2,4.8,9.9,4.8,17.4v40.8h-9.6v-40.8
						C882.4,639.9,884.3,633.2,887.2,630z"/>
					<path class="st5" d="M892.1,690.8h-9.6c-1.5,0-2.7-1.2-2.7-2.7v-40.8c0-8.2,2.1-15.5,5.5-19.2c0.5-0.5,1.2-0.8,2-0.8l0,0
						c0.7,0,1.4,0.3,1.9,0.8c3.4,3.7,5.5,11,5.5,19.2v40.8C894.7,689.6,893.5,690.8,892.1,690.8z M885.1,685.5h4.3v-38.1
						c0-4.7-0.8-9.2-2.1-12.4c-1.3,3.2-2.2,7.7-2.2,12.4V685.5z"/>
				</g>
				<g>
					<path class="st3" d="M875.7,554.7v-52.3c0-5.5,2.4-10.7,6.4-14.2c4,3.6,6.4,8.7,6.4,14.2v52.3H875.7z"/>
					<path class="st5" d="M888.6,557.4h-12.9c-1.5,0-2.7-1.2-2.7-2.7v-52.3c0-6.2,2.7-12.1,7.3-16.2c1-0.9,2.5-0.9,3.5,0
						c4.7,4.1,7.3,10,7.3,16.2v52.3C891.2,556.2,890,557.4,888.6,557.4z M878.3,552.1h7.6v-49.6c0-3.8-1.4-7.5-3.8-10.4
						c-2.4,2.9-3.8,6.6-3.8,10.4V552.1z"/>
				</g>
				<g>
					<polygon class="st9" points="865,565.4 875.7,554.7 888.6,554.7 899.2,565.4 					"/>
					<path class="st5" d="M899.3,568C899.2,568,899.2,568,899.3,568H865c-1.1,0-2-0.6-2.5-1.6c-0.4-1-0.2-2.1,0.6-2.9l10.6-10.6
						c0.5-0.5,1.2-0.8,1.9-0.8h12.9c0.7,0,1.4,0.3,1.9,0.8l10.4,10.4c0.7,0.5,1.1,1.3,1.1,2.1C901.9,566.8,900.7,568,899.3,568z
						 M871.5,562.7h21.3l-5.3-5.3h-10.7L871.5,562.7z"/>
				</g>
				<g>
					<rect x="875.7" y="512.6" class="st10" width="12.9" height="21.3"/>
					<path class="st5" d="M888.6,536.6h-12.9c-1.5,0-2.7-1.2-2.7-2.7v-21.3c0-1.5,1.2-2.7,2.7-2.7h12.9c1.5,0,2.7,1.2,2.7,2.7v21.3
						C891.2,535.4,890,536.6,888.6,536.6z M878.3,531.2h7.6v-16h-7.6V531.2z"/>
				</g>
				<g>
					<path class="st7" d="M962.8,475.6L962.8,475.6L962.8,475.6c10.4,4.9,17.1,15.3,17.1,26.8v62.9h-34.2v-62.9
						C945.7,490.9,952.4,480.5,962.8,475.6z"/>
					<path class="st5" d="M979.9,568h-34.2c-1.5,0-2.7-1.2-2.7-2.7v-62.9c0-12.5,7.3-24,18.6-29.2c0.7-0.3,1.5-0.3,2.3,0
						c11.3,5.3,18.6,16.8,18.6,29.2v62.9C982.5,566.8,981.3,568,979.9,568z M948.4,562.7h28.9v-60.3c0-10-5.6-19.2-14.4-23.9
						c-8.8,4.6-14.4,13.9-14.4,23.9V562.7z"/>
				</g>
				<g>
					<path class="st3" d="M957.7,630L957.7,630L957.7,630c2.9,3.2,4.8,9.9,4.8,17.4v40.8h-9.6v-40.8
						C952.8,639.9,954.7,633.2,957.7,630z"/>
					<path class="st5" d="M962.5,690.8h-9.6c-1.5,0-2.7-1.2-2.7-2.7v-40.8c0-8.2,2.1-15.5,5.5-19.2c1-1.1,2.9-1.1,3.9,0
						c3.4,3.7,5.5,11,5.5,19.2v40.8C965.1,689.6,963.9,690.8,962.5,690.8z M955.5,685.5h4.3v-38.1c0-4.7-0.8-9.2-2.1-12.4
						c-1.3,3.2-2.2,7.7-2.2,12.4V685.5z"/>
				</g>
				<g>
					<path class="st3" d="M967.9,630L967.9,630L967.9,630c2.9,3.2,4.8,9.9,4.8,17.4v40.8h-9.6v-40.8
						C963.1,639.9,965,633.2,967.9,630z"/>
					<path class="st5" d="M972.7,690.8h-9.6c-1.5,0-2.7-1.2-2.7-2.7v-40.8c0-8.2,2.1-15.5,5.5-19.2c1-1.1,2.9-1.1,3.9,0
						c3.4,3.7,5.5,11,5.5,19.2v40.8C975.4,689.6,974.2,690.8,972.7,690.8z M965.7,685.5h4.3v-38.1c0-4.7-0.8-9.2-2.1-12.4
						c-1.3,3.2-2.2,7.7-2.2,12.4V685.5z"/>
				</g>
				<g>
					<path class="st3" d="M956.3,554.7v-52.3c0-5.5,2.4-10.7,6.4-14.2c4,3.6,6.4,8.7,6.4,14.2v52.3H956.3z"/>
					<path class="st5" d="M969.2,557.4h-12.9c-1.5,0-2.7-1.2-2.7-2.7v-52.3c0-6.2,2.7-12.1,7.3-16.2c1-0.9,2.5-0.9,3.5,0
						c4.7,4.1,7.3,10,7.3,16.2v52.3C971.9,556.2,970.7,557.4,969.2,557.4z M959,552.1h7.6v-49.6c0-3.8-1.4-7.5-3.8-10.4
						c-2.4,2.9-3.8,6.6-3.8,10.4V552.1z"/>
				</g>
				<g>
					<polygon class="st9" points="945.7,565.4 956.3,554.7 969.2,554.7 979.9,565.4 					"/>
					<path class="st5" d="M979.9,568C979.9,568,979.9,568,979.9,568h-34.2c-1.1,0-2-0.6-2.5-1.6c-0.4-1-0.2-2.1,0.6-2.9l10.6-10.6
						c0.5-0.5,1.2-0.8,1.9-0.8h12.9c0.7,0,1.4,0.3,1.9,0.8l10.4,10.4c0.7,0.5,1.1,1.3,1.1,2.1C982.6,566.8,981.4,568,979.9,568z
						 M952.1,562.7h21.3l-5.3-5.3h-10.7L952.1,562.7z"/>
				</g>
				<g>
					<rect x="956.3" y="512.6" class="st10" width="12.9" height="21.3"/>
					<path class="st5" d="M969.2,536.6h-12.9c-1.5,0-2.7-1.2-2.7-2.7v-21.3c0-1.5,1.2-2.7,2.7-2.7h12.9c1.5,0,2.7,1.2,2.7,2.7v21.3
						C971.9,535.4,970.7,536.6,969.2,536.6z M959,531.2h7.6v-16H959V531.2z"/>
				</g>
			</g>
			<g>
				<path class="st5" d="M827.2,748.5h-78.9c-1.5,0-2.7-1.2-2.7-2.7V565.4c0-1.5,1.2-2.7,2.7-2.7h78.9c1.5,0,2.7,1.2,2.7,2.7v180.4
					C829.8,747.3,828.6,748.5,827.2,748.5z M750.9,743.1h73.6V568h-73.6V743.1z"/>
			</g>
			<g>
				<rect x="748.3" y="404.4" class="st0" width="78.9" height="160.9"/>
				<path class="st5" d="M827.2,568h-78.9c-1.5,0-2.7-1.2-2.7-2.7V404.4c0-1.5,1.2-2.7,2.7-2.7h78.9c1.5,0,2.7,1.2,2.7,2.7v160.9
					C829.8,566.8,828.6,568,827.2,568z M750.9,562.7h73.6V407.1h-73.6V562.7z"/>
			</g>
			<g>
				<path class="st5" d="M787.7,407.1h-39.5c-1.5,0-2.7-1.2-2.7-2.7v-23.9c0-1.5,1.2-2.7,2.7-2.7h39.5c1.5,0,2.7,1.2,2.7,2.7v23.9
					C790.4,405.9,789.2,407.1,787.7,407.1z M750.9,401.8H785v-18.6h-34.1V401.8z"/>
			</g>
			<g>
				<path class="st5" d="M666.4,464.7c-1.5,0-2.7-1.2-2.7-2.7v-81.6c0-1.5,1.2-2.7,2.7-2.7H727c1.5,0,2.7,1.2,2.7,2.7
					s-1.2,2.7-2.7,2.7h-58v78.9C669,463.5,667.8,464.7,666.4,464.7z"/>
			</g>
			<g>
				<rect x="760.3" y="619.9" class="st3" width="9.6" height="16.2"/>
				<path class="st5" d="M769.9,638.7h-9.6c-1.5,0-2.7-1.2-2.7-2.7v-16.2c0-1.5,1.2-2.7,2.7-2.7h9.6c1.5,0,2.7,1.2,2.7,2.7V636
					C772.6,637.5,771.4,638.7,769.9,638.7z M762.9,633.4h4.3v-10.8h-4.3V633.4z"/>
			</g>
			<g>
				<rect x="760.3" y="672" class="st3" width="9.6" height="16.2"/>
				<path class="st5" d="M769.9,690.8h-9.6c-1.5,0-2.7-1.2-2.7-2.7V672c0-1.5,1.2-2.7,2.7-2.7h9.6c1.5,0,2.7,1.2,2.7,2.7v16.2
					C772.6,689.6,771.4,690.8,769.9,690.8z M762.9,685.5h4.3v-10.8h-4.3V685.5z"/>
			</g>
			<g>
				<rect x="805.5" y="619.9" class="st3" width="9.6" height="16.2"/>
				<path class="st5" d="M815.1,638.7h-9.6c-1.5,0-2.7-1.2-2.7-2.7v-16.2c0-1.5,1.2-2.7,2.7-2.7h9.6c1.5,0,2.7,1.2,2.7,2.7V636
					C817.8,637.5,816.6,638.7,815.1,638.7z M808.2,633.4h4.3v-10.8h-4.3V633.4z"/>
			</g>
			<g>
				<rect x="805.5" y="672" class="st3" width="9.6" height="16.2"/>
				<path class="st5" d="M815.1,690.8h-9.6c-1.5,0-2.7-1.2-2.7-2.7V672c0-1.5,1.2-2.7,2.7-2.7h9.6c1.5,0,2.7,1.2,2.7,2.7v16.2
					C817.8,689.6,816.6,690.8,815.1,690.8z M808.2,685.5h4.3v-10.8h-4.3V685.5z"/>
			</g>
			<g>
				<rect x="762.9" y="464.3" class="st3" width="14.6" height="28.4"/>
				<path class="st5" d="M777.5,495.3h-14.6c-1.5,0-2.7-1.2-2.7-2.7v-28.4c0-1.5,1.2-2.7,2.7-2.7h14.6c1.5,0,2.7,1.2,2.7,2.7v28.4
					C780.2,494.1,779,495.3,777.5,495.3z M765.5,490h9.3v-23h-9.3V490z"/>
			</g>
			<g>
				<path class="st5" d="M777.5,486.9h-14.6c-1.5,0-2.7-1.2-2.7-2.7v-11.5c0-1.5,1.2-2.7,2.7-2.7h14.6c1.5,0,2.7,1.2,2.7,2.7v11.5
					C780.2,485.7,779,486.9,777.5,486.9z M765.5,481.6h9.3v-6.2h-9.3V481.6z"/>
			</g>
			<g>
				<rect x="780.4" y="537" class="st3" width="14.6" height="28.4"/>
				<path class="st5" d="M795,568h-14.6c-1.5,0-2.7-1.2-2.7-2.7V537c0-1.5,1.2-2.7,2.7-2.7H795c1.5,0,2.7,1.2,2.7,2.7v28.4
					C797.7,566.8,796.5,568,795,568z M783.1,562.7h9.3v-23.1h-9.3V562.7z"/>
			</g>
			<g>
				<path class="st5" d="M795,559.6h-14.6c-1.5,0-2.7-1.2-2.7-2.7v-11.5c0-1.5,1.2-2.7,2.7-2.7H795c1.5,0,2.7,1.2,2.7,2.7v11.5
					C797.7,558.4,796.5,559.6,795,559.6z M783.1,554.3h9.3v-6.2h-9.3V554.3z"/>
			</g>
			<g>
				<path class="st5" d="M1030.2,748.5h-15.1c-1.5,0-2.7-1.2-2.7-2.7s1.2-2.7,2.7-2.7h15.1c1.5,0,2.7,1.2,2.7,2.7
					S1031.7,748.5,1030.2,748.5z"/>
			</g>
			<g>
				<g>
					<rect x="498.2" y="402.7" class="st7" width="10.6" height="145.4"/>
					<path class="st5" d="M508.8,550.7h-10.6c-1.5,0-2.7-1.2-2.7-2.7V402.7c0-1.5,1.2-2.7,2.7-2.7h10.6c1.5,0,2.7,1.2,2.7,2.7v145.4
						C511.5,549.6,510.3,550.7,508.8,550.7z M500.9,545.4h5.3V405.3h-5.3V545.4z"/>
				</g>
				<g>
					<rect x="523.5" y="402.7" class="st7" width="10.6" height="145.4"/>
					<path class="st5" d="M534.1,550.7h-10.6c-1.5,0-2.7-1.2-2.7-2.7V402.7c0-1.5,1.2-2.7,2.7-2.7h10.6c1.5,0,2.7,1.2,2.7,2.7v145.4
						C536.8,549.6,535.6,550.7,534.1,550.7z M526.1,545.4h5.3V405.3h-5.3V545.4z"/>
				</g>
				<g>
					<rect x="508.8" y="402.7" class="st9" width="14.6" height="145.4"/>
					<path class="st5" d="M523.5,550.7h-14.6c-1.5,0-2.7-1.2-2.7-2.7V402.7c0-1.5,1.2-2.7,2.7-2.7h14.6c1.5,0,2.7,1.2,2.7,2.7v145.4
						C526.1,549.6,524.9,550.7,523.5,550.7z M511.5,545.4h9.3V405.3h-9.3V545.4z"/>
				</g>
				<g>
					<path class="st4" d="M495.8,548.1l11.7,22.7c4.1,6.1,13.1,6.1,17.3,0l11.7-22.7H495.8z"/>
					<path class="st5" d="M516.2,578c-4.4,0-8.4-2.2-10.8-5.8c-0.1-0.1-0.1-0.2-0.2-0.3l-11.7-22.7c-0.4-0.8-0.4-1.8,0.1-2.6
						c0.5-0.8,1.3-1.3,2.3-1.3h40.7c0.9,0,1.8,0.5,2.3,1.3c0.5,0.8,0.5,1.8,0.1,2.6L527.2,572c0,0.1-0.1,0.2-0.2,0.3
						C524.6,575.9,520.5,578,516.2,578z M509.8,569.4c1.5,2.1,3.8,3.3,6.3,3.3c2.6,0,4.9-1.2,6.3-3.3l9.6-18.6h-32L509.8,569.4z"/>
				</g>
				<g>
					<polygon class="st11" points="496.3,402.7 516.2,334.4 536.1,402.7 					"/>
					<path class="st5" d="M536.1,405.3C536.1,405.3,536.1,405.3,536.1,405.3h-39.8c-0.8,0-1.6-0.4-2.1-1.1c-0.5-0.7-0.7-1.5-0.4-2.3
						l19.9-68.3c0.3-1.1,1.4-1.9,2.6-1.9c1.2,0,2.2,0.8,2.6,1.9l19.8,67.8c0.2,0.4,0.3,0.8,0.3,1.2
						C538.8,404.1,537.6,405.3,536.1,405.3z M499.8,400h32.7l-16.3-56.1L499.8,400z"/>
				</g>
				<g>
					<polygon class="st12" points="507.6,402.7 516.2,340.9 524.7,402.7 					"/>
					<path class="st5" d="M524.8,405.3C524.8,405.3,524.7,405.3,524.8,405.3h-17.2c-0.8,0-1.5-0.3-2-0.9c-0.5-0.6-0.7-1.4-0.6-2.1
						l8.6-61.8c0.2-1.3,1.3-2.3,2.6-2.3c1.3,0,2.5,1,2.6,2.3l8.5,61.3c0.1,0.3,0.1,0.5,0.1,0.8C527.4,404.1,526.2,405.3,524.8,405.3
						z M510.6,400h11l-5.5-39.7L510.6,400z"/>
				</g>
			</g>
			<g>
				<g>
					<rect x="419.3" y="402.7" class="st7" width="10.6" height="145.4"/>
					<path class="st5" d="M429.9,550.7h-10.6c-1.5,0-2.7-1.2-2.7-2.7V402.7c0-1.5,1.2-2.7,2.7-2.7h10.6c1.5,0,2.7,1.2,2.7,2.7v145.4
						C432.6,549.6,431.4,550.7,429.9,550.7z M421.9,545.4h5.3V405.3h-5.3V545.4z"/>
				</g>
				<g>
					<rect x="444.6" y="402.7" class="st7" width="10.6" height="145.4"/>
					<path class="st5" d="M455.2,550.7h-10.6c-1.5,0-2.7-1.2-2.7-2.7V402.7c0-1.5,1.2-2.7,2.7-2.7h10.6c1.5,0,2.7,1.2,2.7,2.7v145.4
						C457.9,549.6,456.7,550.7,455.2,550.7z M447.2,545.4h5.3V405.3h-5.3V545.4z"/>
				</g>
				<g>
					<rect x="429.9" y="402.7" class="st9" width="14.6" height="145.4"/>
					<path class="st5" d="M444.6,550.7h-14.6c-1.5,0-2.7-1.2-2.7-2.7V402.7c0-1.5,1.2-2.7,2.7-2.7h14.6c1.5,0,2.7,1.2,2.7,2.7v145.4
						C447.2,549.6,446,550.7,444.6,550.7z M432.6,545.4h9.3V405.3h-9.3V545.4z"/>
				</g>
				<g>
					<path class="st4" d="M416.9,548.1l11.7,22.7c4.1,6.1,13.1,6.1,17.3,0l11.7-22.7H416.9z"/>
					<path class="st5" d="M437.2,578c-4.4,0-8.4-2.2-10.8-5.8c-0.1-0.1-0.1-0.2-0.2-0.3l-11.7-22.7c-0.4-0.8-0.4-1.8,0.1-2.6
						c0.5-0.8,1.3-1.3,2.3-1.3h40.7c0.9,0,1.8,0.5,2.3,1.3c0.5,0.8,0.5,1.8,0.1,2.6L448.2,572c0,0.1-0.1,0.2-0.2,0.3
						C445.7,575.9,441.6,578,437.2,578z M430.9,569.4c1.5,2.1,3.8,3.3,6.3,3.3c2.6,0,4.9-1.2,6.3-3.3l9.6-18.6h-32L430.9,569.4z"/>
				</g>
				<g>
					<polygon class="st11" points="417.4,402.7 437.2,334.4 457.1,402.7 					"/>
					<path class="st5" d="M457.2,405.3C457.2,405.3,457.2,405.3,457.2,405.3h-39.8c-0.8,0-1.6-0.4-2.1-1.1c-0.5-0.7-0.7-1.5-0.4-2.3
						l19.9-68.3c0.3-1.1,1.4-1.9,2.6-1.9c1.2,0,2.2,0.8,2.6,1.9l19.8,67.8c0.2,0.4,0.3,0.8,0.3,1.2
						C459.8,404.1,458.6,405.3,457.2,405.3z M420.9,400h32.7l-16.3-56.1L420.9,400z"/>
				</g>
				<g>
					<polygon class="st12" points="428.7,402.7 437.2,340.9 445.8,402.7 					"/>
					<path class="st5" d="M445.9,405.3C445.9,405.3,445.8,405.3,445.9,405.3h-17.2c-0.8,0-1.5-0.3-2-0.9c-0.5-0.6-0.7-1.4-0.6-2.1
						l8.6-61.8c0.2-1.3,1.3-2.3,2.6-2.3c1.3,0,2.5,1,2.6,2.3l8.5,61.3c0.1,0.3,0.1,0.5,0.1,0.8C448.5,404.1,447.3,405.3,445.9,405.3
						z M431.7,400h11l-5.5-39.7L431.7,400z"/>
				</g>
			</g>
			<g>
				<g>
					<rect x="73.4" y="357.6" class="st7" width="16.4" height="163"/>
					<path class="st5" d="M89.8,523.2H73.4c-1.5,0-2.7-1.2-2.7-2.7v-163c0-1.5,1.2-2.7,2.7-2.7h16.4c1.5,0,2.7,1.2,2.7,2.7v163
						C92.4,522,91.3,523.2,89.8,523.2z M76.1,517.9h11.1V360.2H76.1V517.9z"/>
				</g>
				<g>
					<rect x="112.3" y="357.6" class="st7" width="16.4" height="163"/>
					<path class="st5" d="M128.7,523.2h-16.4c-1.5,0-2.7-1.2-2.7-2.7v-163c0-1.5,1.2-2.7,2.7-2.7h16.4c1.5,0,2.7,1.2,2.7,2.7v163
						C131.4,522,130.2,523.2,128.7,523.2z M115,517.9H126V360.2H115V517.9z"/>
				</g>
				<g>
					<rect x="89.8" y="357.6" class="st9" width="22.5" height="163"/>
					<path class="st5" d="M112.3,523.2H89.8c-1.5,0-2.7-1.2-2.7-2.7v-163c0-1.5,1.2-2.7,2.7-2.7h22.5c1.5,0,2.7,1.2,2.7,2.7v163
						C115,522,113.8,523.2,112.3,523.2z M92.4,517.9h17.2V360.2H92.4V517.9z"/>
				</g>
				<g>
					<path class="st4" d="M69.7,520.5l14.8,19.9c4.3,5.7,10.2,9.2,16.4,9.3c0.1,0,0.2,0,0.3,0c6.2,0,12.1-3.5,16.4-9.3l14.8-19.9
						H69.7z"/>
					<path class="st5" d="M101.2,552.4h-0.3c-6.9,0-13.7-3.8-18.5-10.4l-14.8-19.9c-0.6-0.8-0.7-1.9-0.2-2.8
						c0.5-0.9,1.4-1.5,2.4-1.5h62.7c1,0,1.9,0.6,2.4,1.5c0.5,0.9,0.4,2-0.2,2.8L119.7,542C114.9,548.6,108.1,552.4,101.2,552.4
						C101.2,552.4,101.2,552.4,101.2,552.4z M75,523.2l11.6,15.7c3.8,5.2,9.1,8.2,14.3,8.2h0.3c5.2,0,10.4-3,14.3-8.2l11.6-15.7H75z
						"/>
				</g>
			</g>
			<g>
				<path class="st5" d="M727,550.7H536.5c-1.5,0-2.7-1.2-2.7-2.7c0-1.5,1.2-2.7,2.7-2.7H727c1.5,0,2.7,1.2,2.7,2.7
					C729.6,549.6,728.4,550.7,727,550.7z"/>
			</g>
			<g>
				<rect x="688.4" y="455" class="st3" width="10.6" height="18.6"/>
				<path class="st5" d="M699,476.3h-10.6c-1.5,0-2.7-1.2-2.7-2.7V455c0-1.5,1.2-2.7,2.7-2.7H699c1.5,0,2.7,1.2,2.7,2.7v18.6
					C701.7,475.1,700.5,476.3,699,476.3z M691.1,470.9h5.3v-13.3h-5.3V470.9z"/>
			</g>
			<g>
				<rect x="624.9" y="492.7" class="st3" width="10.6" height="18.6"/>
				<path class="st5" d="M635.5,513.9h-10.6c-1.5,0-2.7-1.2-2.7-2.7v-18.6c0-1.5,1.2-2.7,2.7-2.7h10.6c1.5,0,2.7,1.2,2.7,2.7v18.6
					C638.2,512.8,637,513.9,635.5,513.9z M627.6,508.6h5.3v-13.3h-5.3V508.6z"/>
			</g>
			<g>
				<rect x="589" y="529.5" class="st3" width="10.6" height="18.6"/>
				<path class="st5" d="M599.6,550.7H589c-1.5,0-2.7-1.2-2.7-2.7v-18.6c0-1.5,1.2-2.7,2.7-2.7h10.6c1.5,0,2.7,1.2,2.7,2.7v18.6
					C602.3,549.6,601.1,550.7,599.6,550.7z M591.6,545.4h5.3v-13.3h-5.3V545.4z"/>
			</g>
			<g>
				<rect x="606" y="620.8" class="st3" width="10.6" height="18.6"/>
				<path class="st5" d="M616.6,642.1H606c-1.5,0-2.7-1.2-2.7-2.7v-18.6c0-1.5,1.2-2.7,2.7-2.7h10.6c1.5,0,2.7,1.2,2.7,2.7v18.6
					C619.3,640.9,618.1,642.1,616.6,642.1z M608.6,636.8h5.3v-13.3h-5.3V636.8z"/>
			</g>
			<g>
				<rect x="606" y="666" class="st3" width="10.6" height="18.6"/>
				<path class="st5" d="M616.6,687.3H606c-1.5,0-2.7-1.2-2.7-2.7V666c0-1.5,1.2-2.7,2.7-2.7h10.6c1.5,0,2.7,1.2,2.7,2.7v18.6
					C619.3,686.1,618.1,687.3,616.6,687.3z M608.6,682h5.3v-13.3h-5.3V682z"/>
			</g>
			<g>
				<rect x="544.3" y="627" class="st3" width="10.6" height="18.6"/>
				<path class="st5" d="M554.9,648.3h-10.6c-1.5,0-2.7-1.2-2.7-2.7V627c0-1.5,1.2-2.7,2.7-2.7h10.6c1.5,0,2.7,1.2,2.7,2.7v18.6
					C557.6,647.1,556.4,648.3,554.9,648.3z M546.9,643h5.3v-13.3h-5.3V643z"/>
			</g>
			<g>
				<rect x="660.5" y="529.5" class="st3" width="10.6" height="18.6"/>
				<path class="st5" d="M671.1,550.7h-10.6c-1.5,0-2.7-1.2-2.7-2.7v-18.6c0-1.5,1.2-2.7,2.7-2.7h10.6c1.5,0,2.7,1.2,2.7,2.7v18.6
					C673.8,549.6,672.6,550.7,671.1,550.7z M663.1,545.4h5.3v-13.3h-5.3V545.4z"/>
			</g>
			<g>
				<rect x="688.4" y="529.5" class="st3" width="10.6" height="18.6"/>
				<path class="st5" d="M699,550.7h-10.6c-1.5,0-2.7-1.2-2.7-2.7v-18.6c0-1.5,1.2-2.7,2.7-2.7H699c1.5,0,2.7,1.2,2.7,2.7v18.6
					C701.7,549.6,700.5,550.7,699,550.7z M691.1,545.4h5.3v-13.3h-5.3V545.4z"/>
			</g>
			<g>
				<rect x="301.1" y="380.5" class="st7" width="15.7" height="305.9"/>
				<path class="st5" d="M316.8,689.1h-15.7c-1.5,0-2.7-1.2-2.7-2.7V380.5c0-1.5,1.2-2.7,2.7-2.7h15.7c1.5,0,2.7,1.2,2.7,2.7v305.9
					C319.5,687.9,318.3,689.1,316.8,689.1z M303.8,683.7h10.3V383.2h-10.3V683.7z"/>
			</g>
			<g>
				<rect x="316.6" y="535.7" class="st9" width="102.7" height="12.4"/>
				<path class="st5" d="M419.3,550.7H316.6c-1.5,0-2.7-1.2-2.7-2.7v-12.4c0-1.5,1.2-2.7,2.7-2.7h102.7c1.5,0,2.7,1.2,2.7,2.7v12.4
					C421.9,549.6,420.8,550.7,419.3,550.7z M319.3,545.4h97.4v-7.1h-97.4V545.4z"/>
			</g>
			<g>
				<path class="st5" d="M498.2,439c-1.5,0-2.7-1.2-2.7-2.7v-16h-8.9v16c0,1.5-1.2,2.7-2.7,2.7h-14.6c-1.5,0-2.7-1.2-2.7-2.7v-16
					h-8.9v16c0,1.5-1.2,2.7-2.7,2.7c-1.5,0-2.7-1.2-2.7-2.7v-18.6c0-1.5,1.2-2.7,2.7-2.7h14.2c1.5,0,2.7,1.2,2.7,2.7v16h9.3v-16
					c0-1.5,1.2-2.7,2.7-2.7h14.2c1.5,0,2.7,1.2,2.7,2.7v18.6C500.9,437.8,499.7,439,498.2,439z"/>
			</g>
			<g>
				<path class="st5" d="M498.2,502.9c-1.5,0-2.7-1.2-2.7-2.7v-16h-8.9v5.3c0,1.5-1.2,2.7-2.7,2.7h-14.6c-1.5,0-2.7-1.2-2.7-2.7
					v-5.3h-8.9v16c0,1.5-1.2,2.7-2.7,2.7c-1.5,0-2.7-1.2-2.7-2.7v-18.6c0-1.5,1.2-2.7,2.7-2.7h14.2c1.5,0,2.7,1.2,2.7,2.7v5.3h9.3
					v-5.3c0-1.5,1.2-2.7,2.7-2.7h14.2c1.5,0,2.7,1.2,2.7,2.7v18.6C500.9,501.7,499.7,502.9,498.2,502.9z"/>
			</g>
			<g>
				<path class="st5" d="M419.3,439c-1.5,0-2.7-1.2-2.7-2.7v-16h-9.2v15.2c0.1,0.2,0.1,0.5,0.1,0.8c0,1.5-1.2,2.7-2.7,2.7H390
					c-1.5,0-2.7-1.2-2.7-2.7v-16h-9.2v16c0,1.5-1.2,2.7-2.7,2.7h-14.9c-1.5,0-2.7-1.2-2.7-2.7v-16h-9.2v16c0,1.5-1.2,2.7-2.7,2.7
					h-14.9c-1.5,0-2.7-1.2-2.7-2.7v-16h-9.2v16c0,1.5-1.2,2.7-2.7,2.7c-1.5,0-2.7-1.2-2.7-2.7v-18.6c0-1.5,1.2-2.7,2.7-2.7h14.5
					c1.5,0,2.7,1.2,2.7,2.7v16h9.6v-16c0-1.5,1.2-2.7,2.7-2.7h14.5c1.5,0,2.7,1.2,2.7,2.7v16h9.6v-16c0-1.5,1.2-2.7,2.7-2.7H390
					c1.5,0,2.7,1.2,2.7,2.7v16h9.5v-16c0-1.5,1.2-2.7,2.7-2.7h14.5c1.5,0,2.7,1.2,2.7,2.7v18.6C421.9,437.8,420.8,439,419.3,439z"/>
			</g>
			<g>
				<path class="st5" d="M301.1,395c-1.5,0-2.7-1.2-2.7-2.7v-20.9h-13.6v20.1c0.1,0.3,0.2,0.6,0.2,0.9c0,1.5-1.2,2.7-2.7,2.7h-19.5
					c-1.5,0-2.7-1.2-2.7-2.7v-20.9h-13.6v20.9c0,1.5-1.2,2.7-2.7,2.7h-19.5c-1.5,0-2.7-1.2-2.7-2.7v-20.9h-13.6v20.9
					c0,1.5-1.2,2.7-2.7,2.7H186c-1.5,0-2.7-1.2-2.7-2.7v-20.9h-13.6v20.9c0,1.5-1.2,2.7-2.7,2.7h-19.5c-1.5,0-2.7-1.2-2.7-2.7v-20.9
					h-13.6v20.9c0,1.5-1.2,2.7-2.7,2.7c-1.5,0-2.7-1.2-2.7-2.7v-23.6c0-1.5,1.2-2.7,2.7-2.7h18.9c1.5,0,2.7,1.2,2.7,2.7v20.9h14.2
					v-20.9c0-1.5,1.2-2.7,2.7-2.7H186c1.5,0,2.7,1.2,2.7,2.7v20.9h14.2v-20.9c0-1.5,1.2-2.7,2.7-2.7h18.9c1.5,0,2.7,1.2,2.7,2.7
					v20.9h14.2v-20.9c0-1.5,1.2-2.7,2.7-2.7h18.9c1.5,0,2.7,1.2,2.7,2.7v20.9h14v-20.9c0-1.5,1.2-2.7,2.7-2.7h18.9
					c1.5,0,2.7,1.2,2.7,2.7v23.6C303.8,393.8,302.6,395,301.1,395z"/>
			</g>
			<g>
				<path class="st5" d="M666.4,466.9c-1.5,0-2.7-1.2-2.7-2.7v-16h-9.2v16c0,1.5-1.2,2.7-2.7,2.7h-14.9c-1.5,0-2.7-1.2-2.7-2.7v-16
					h-9.2v16c0,1.5-1.2,2.7-2.7,2.7h-14.9c-1.5,0-2.7-1.2-2.7-2.7v-16h-9.2v16c0,1.5-1.2,2.7-2.7,2.7H578c-1.5,0-2.7-1.2-2.7-2.7
					v-16h-9.2v16c0,1.5-1.2,2.7-2.7,2.7h-14.9c-1.5,0-2.7-1.2-2.7-2.7v-16h-9.2v16c0,1.5-1.2,2.7-2.7,2.7c-1.5,0-2.7-1.2-2.7-2.7
					v-18.6c0-1.5,1.2-2.7,2.7-2.7h14.5c1.5,0,2.7,1.2,2.7,2.7v16h9.6v-16c0-1.5,1.2-2.7,2.7-2.7H578c1.5,0,2.7,1.2,2.7,2.7v16h9.6
					v-16c0-1.5,1.2-2.7,2.7-2.7h14.5c1.5,0,2.7,1.2,2.7,2.7v16h9.6v-16c0-1.5,1.2-2.7,2.7-2.7h14.5c1.5,0,2.7,1.2,2.7,2.7v16h9.6
					v-16c0-1.5,1.2-2.7,2.7-2.7h14.5c1.5,0,2.7,1.2,2.7,2.7v18.6C669,465.8,667.8,466.9,666.4,466.9z"/>
			</g>
			<g>
				<path class="st5" d="M578,548.1c-1.5,0-2.7-1.2-2.7-2.7v-81.1c0-1.5,1.2-2.7,2.7-2.7c1.5,0,2.7,1.2,2.7,2.7v81.1
					C580.7,546.9,579.5,548.1,578,548.1z"/>
			</g>
			<g>
				<polygon class="st7" points="64.6,745.8 64.6,686.4 542.3,686.4 646.4,745.8 				"/>
				<path class="st5" d="M646.4,748.5c-0.4,0-0.9-0.1-1.3-0.4l-103.5-59.1H67.3v56.7c0,1.5-1.2,2.7-2.7,2.7c-1.5,0-2.7-1.2-2.7-2.7
					v-59.4c0-1.5,1.2-2.7,2.7-2.7h477.6c0.5,0,0.9,0.1,1.3,0.4l104.1,59.4c1.3,0.7,1.7,2.4,1,3.6C648.2,748,647.3,748.5,646.4,748.5
					z"/>
			</g>
			<g>
				<polygon class="st8" points="539.4,697 64.6,697 64.6,745.8 624.9,745.8 				"/>
				<path class="st5" d="M624.9,748.5H64.6c-1.5,0-2.7-1.2-2.7-2.7V697c0-1.5,1.2-2.7,2.7-2.7h474.8c0.5,0,0.9,0.1,1.3,0.4
					l85.5,48.8c1,0.6,1.6,1.8,1.3,3C627.2,747.7,626.1,748.5,624.9,748.5z M67.3,743.1h547.6l-76.1-43.4H67.3V743.1z"/>
			</g>
			<g>
				<g>
					<path class="st10" d="M381.3,535.7h-26.8v-33.5c0-6.2,5.3-11.7,13.4-14l0,0l0,0c8.1,2.3,13.4,7.8,13.4,14V535.7z"/>
					<path class="st5" d="M381.3,538.3h-26.8c-1.5,0-2.7-1.2-2.7-2.7v-33.5c0-7.4,6-13.9,15.3-16.6c0.5-0.1,1-0.1,1.4,0
						c9.3,2.6,15.3,9.1,15.3,16.6v33.5C384,537.1,382.8,538.3,381.3,538.3z M357.2,533h21.4v-30.9c0-4.7-4.3-9.2-10.7-11.2
						c-6.4,2-10.7,6.5-10.7,11.2V533z"/>
				</g>
				<g>
					<path class="st3" d="M367.9,535.7h-13.4v-23.6c0-4.3,2.7-8.3,6.7-9.9l0,0l0,0c4,1.6,6.7,5.5,6.7,9.9V535.7z"/>
					<path class="st5" d="M367.9,538.3h-13.4c-1.5,0-2.7-1.2-2.7-2.7v-23.6c0-5.5,3.3-10.3,8.4-12.3c0.6-0.3,1.3-0.3,2,0
						c5.1,2,8.4,6.9,8.4,12.3v23.6C370.6,537.1,369.4,538.3,367.9,538.3z M357.2,533h8.1v-20.9c0-2.9-1.6-5.5-4-6.9
						c-2.5,1.4-4,4-4,6.9V533z"/>
				</g>
				<g>
					<path class="st3" d="M381.3,535.7h-13.4v-23.6c0-4.3,2.6-8.3,6.7-9.9l0,0l0,0c4,1.6,6.7,5.5,6.7,9.9V535.7z"/>
					<path class="st5" d="M381.3,538.3h-13.4c-1.5,0-2.7-1.2-2.7-2.7v-23.6c0-5.5,3.3-10.3,8.4-12.3c0.6-0.3,1.3-0.3,2,0
						c5.1,2,8.4,6.9,8.4,12.3v23.6C384,537.1,382.8,538.3,381.3,538.3z M370.6,533h8.1v-20.9c0-2.9-1.6-5.5-4-6.9
						c-2.5,1.4-4,4-4,6.9V533z"/>
				</g>
				<g>
					<path class="st5" d="M367.9,490.8c-1.5,0-2.7-1.2-2.7-2.7v-6.5c0-1.5,1.2-2.7,2.7-2.7c1.5,0,2.7,1.2,2.7,2.7v6.5
						C370.6,489.6,369.4,490.8,367.9,490.8z"/>
				</g>
			</g>
			<g>
				<g>
					<path class="st5" d="M488,483.3c-1.5,0-2.7-1.2-2.7-2.7c0-6.1-3.3-11.6-8.6-14.2c-5.3,2.6-8.6,8.1-8.6,14.2
						c0,1.5-1.2,2.7-2.7,2.7c-1.5,0-2.7-1.2-2.7-2.7c0-8.7,5.1-16.4,12.9-19.6c0.6-0.3,1.4-0.3,2,0c7.8,3.2,12.9,10.9,12.9,19.6
						C490.6,482.1,489.4,483.3,488,483.3z"/>
				</g>
				<g>
					<path class="st5" d="M476.7,466.2c-1.5,0-2.7-1.2-2.7-2.7v-8c0-1.5,1.2-2.7,2.7-2.7c1.5,0,2.7,1.2,2.7,2.7v8
						C479.4,465,478.2,466.2,476.7,466.2z"/>
				</g>
			</g>
			<g>
				<g>
					<path class="st10" d="M569.7,535.7h-26.8v-33.5c0-6.2,5.3-11.7,13.4-14l0,0l0,0c8.1,2.3,13.4,7.8,13.4,14V535.7z"/>
					<path class="st5" d="M569.7,538.3h-26.8c-1.5,0-2.7-1.2-2.7-2.7v-33.5c0-7.4,6-13.9,15.3-16.6c0.5-0.1,1-0.1,1.4,0
						c9.3,2.6,15.3,9.1,15.3,16.6v33.5C572.3,537.1,571.1,538.3,569.7,538.3z M545.6,533H567v-30.9c0-4.7-4.3-9.2-10.7-11.2
						c-6.4,2-10.7,6.5-10.7,11.2V533z"/>
				</g>
				<g>
					<path class="st3" d="M556.3,535.7h-13.4v-23.6c0-4.3,2.7-8.3,6.7-9.9l0,0l0,0c4,1.6,6.7,5.5,6.7,9.9V535.7z"/>
					<path class="st5" d="M556.3,538.3h-13.4c-1.5,0-2.7-1.2-2.7-2.7v-23.6c0-5.5,3.3-10.3,8.4-12.3c0.6-0.3,1.3-0.3,2,0
						c5.1,2,8.4,6.9,8.4,12.3v23.6C558.9,537.1,557.8,538.3,556.3,538.3z M545.6,533h8.1v-20.9c0-2.9-1.5-5.5-4-6.9
						c-2.5,1.4-4,4-4,6.9V533z"/>
				</g>
				<g>
					<path class="st3" d="M569.7,535.7h-13.4v-23.6c0-4.3,2.7-8.3,6.7-9.9l0,0l0,0c4,1.6,6.7,5.5,6.7,9.9V535.7z"/>
					<path class="st5" d="M569.7,538.3h-13.4c-1.5,0-2.7-1.2-2.7-2.7v-23.6c0-5.5,3.3-10.3,8.4-12.3c0.6-0.3,1.3-0.3,2,0
						c5.1,2,8.4,6.9,8.4,12.3v23.6C572.3,537.1,571.1,538.3,569.7,538.3z M558.9,533h8.1v-20.9c0-2.9-1.5-5.5-4-6.9
						c-2.5,1.4-4,4-4,6.9V533z"/>
				</g>
				<g>
					<path class="st5" d="M556.3,490.8c-1.5,0-2.7-1.2-2.7-2.7v-6.5c0-1.5,1.2-2.7,2.7-2.7c1.5,0,2.7,1.2,2.7,2.7v6.5
						C558.9,489.6,557.8,490.8,556.3,490.8z"/>
				</g>
			</g>
			<g>
				<g>
					<path class="st3" d="M671.1,668.4h-11.3v-23.6c0-4.3,2.2-8.3,5.7-9.9l0,0l0,0c3.4,1.6,5.6,5.5,5.6,9.9V668.4z"/>
					<path class="st5" d="M671.1,671.1h-11.3c-1.5,0-2.7-1.2-2.7-2.7v-23.6c0-5.4,2.8-10.2,7.2-12.3c0.7-0.3,1.6-0.3,2.3,0
						c4.4,2.1,7.2,6.9,7.2,12.3v23.6C673.8,669.9,672.6,671.1,671.1,671.1z M662.5,665.7h6v-20.9c0-2.8-1.2-5.3-3-6.7
						c-1.8,1.4-3,4-3,6.7V665.7z"/>
				</g>
				<g>
					<path class="st3" d="M682.4,668.4h-11.3v-23.6c0-4.3,2.2-8.3,5.7-9.9l0,0l0,0c3.4,1.6,5.7,5.5,5.7,9.9V668.4z"/>
					<path class="st5" d="M682.4,671.1h-11.3c-1.5,0-2.7-1.2-2.7-2.7v-23.6c0-5.4,2.8-10.2,7.2-12.3c0.7-0.3,1.6-0.3,2.3,0
						c4.4,2.1,7.2,6.9,7.2,12.3v23.6C685.1,669.9,683.9,671.1,682.4,671.1z M673.8,665.7h6v-20.9c0-2.8-1.2-5.3-3-6.7
						c-1.8,1.4-3,4-3,6.7V665.7z"/>
				</g>
				<g>
					<path class="st10" d="M682.4,668.4h-22.6v-33.5c0-6.2,4.5-11.7,11.3-14l0,0l0,0c6.8,2.3,11.3,7.8,11.3,14V668.4z"/>
					<path class="st5" d="M682.4,671.1h-22.6c-1.5,0-2.7-1.2-2.7-2.7v-33.5c0-7.4,5.2-13.9,13.1-16.5c0.5-0.2,1.1-0.2,1.7,0
						c8,2.7,13.1,9.2,13.1,16.5v33.5C685.1,669.9,683.9,671.1,682.4,671.1z M662.5,665.7h17.3v-30.9c0-4.8-3.4-9.1-8.6-11.2
						c-5.3,2.1-8.6,6.4-8.6,11.2V665.7z"/>
				</g>
				<g>
					<path class="st5" d="M671.1,623.5c-1.5,0-2.7-1.2-2.7-2.7v-6.5c0-1.5,1.2-2.7,2.7-2.7c1.5,0,2.7,1.2,2.7,2.7v6.5
						C673.8,622.3,672.6,623.5,671.1,623.5z"/>
				</g>
			</g>
			<g>
				<rect x="534.1" y="535.7" class="st9" width="43.9" height="12.4"/>
				<path class="st5" d="M578,550.7h-43.9c-1.5,0-2.7-1.2-2.7-2.7v-12.4c0-1.5,1.2-2.7,2.7-2.7H578c1.5,0,2.7,1.2,2.7,2.7v12.4
					C580.7,549.6,579.5,550.7,578,550.7z M536.8,545.4h38.6v-7.1h-38.6V545.4z"/>
			</g>
			<g>
				<g>
					<path class="st6" d="M361.3,686.4h-44.7v-84.5c0-14.2,8.9-26.9,22.3-31.7l0,0l0,0c13.4,4.8,22.3,17.5,22.3,31.7V686.4z"/>
					<path class="st5" d="M361.3,689.1h-44.7c-1.5,0-2.7-1.2-2.7-2.7v-84.5c0-15.3,9.7-29,24.1-34.2c0.6-0.2,1.2-0.2,1.8,0
						c14.4,5.2,24.1,18.9,24.1,34.2v84.5C363.9,687.9,362.7,689.1,361.3,689.1z M319.3,683.7h39.3v-81.8c0-12.7-7.9-24.2-19.7-28.8
						c-11.8,4.6-19.7,16.1-19.7,28.8V683.7z"/>
				</g>
				<g>
					<rect x="316.6" y="609.3" class="st7" width="44.7" height="37.7"/>
					<path class="st5" d="M361.3,649.6h-44.7c-1.5,0-2.7-1.2-2.7-2.7v-37.7c0-1.5,1.2-2.7,2.7-2.7h44.7c1.5,0,2.7,1.2,2.7,2.7v37.7
						C363.9,648.4,362.7,649.6,361.3,649.6z M319.3,644.3h39.3v-32.4h-39.3V644.3z"/>
				</g>
			</g>
			<g>
				<g>
					<path class="st6" d="M506,686.4h-58.6v-90.7c0-15.3,11.7-28.9,29.3-34l0,0l0,0c17.6,5.1,29.3,18.8,29.3,34V686.4z"/>
					<path class="st5" d="M506,689.1h-58.6c-1.5,0-2.7-1.2-2.7-2.7v-90.7c0-16.4,12.6-31.1,31.2-36.6c0.5-0.1,1-0.1,1.5,0
						c18.7,5.5,31.2,20.2,31.2,36.6v90.7C508.7,687.9,507.5,689.1,506,689.1z M450,683.7h53.3v-88c0-13.8-10.7-26.3-26.6-31.2
						c-16,5-26.7,17.4-26.7,31.2V683.7z"/>
				</g>
			</g>
			<g>
				<g>
					<path class="st7" d="M497.1,686.4h-40.8v-28c0-10.6,8.2-20.1,20.4-23.7l0,0l0,0c12.2,3.6,20.4,13,20.4,23.7V686.4z"/>
					<path class="st5" d="M497.1,689.1h-40.8c-1.5,0-2.7-1.2-2.7-2.7v-28c0-11.8,9-22.3,22.3-26.2c0.5-0.1,1-0.1,1.5,0
						c13.3,3.9,22.3,14.4,22.3,26.2v28C499.8,687.9,498.6,689.1,497.1,689.1z M459,683.7h35.5v-25.4c0-9.2-7.1-17.5-17.7-20.9
						c-10.6,3.4-17.7,11.7-17.7,20.9V683.7z"/>
				</g>
			</g>
			<g>
				<g>
					<path class="st3" d="M488.2,686.4h-23.1v-26.1c0-6,4.6-11.4,11.5-13.4l0,0l0,0c6.9,2,11.5,7.4,11.5,13.4V686.4z"/>
					<path class="st5" d="M488.2,689.1h-23.1c-1.5,0-2.7-1.2-2.7-2.7v-26.1c0-7.2,5.4-13.6,13.5-15.9c0.5-0.1,1-0.1,1.5,0
						c8.1,2.4,13.5,8.8,13.5,15.9v26.1C490.9,687.9,489.7,689.1,488.2,689.1z M467.8,683.7h17.8v-23.4c0-4.6-3.5-8.8-8.9-10.6
						c-5.3,1.8-8.9,6-8.9,10.6V683.7z"/>
				</g>
			</g>
			<g>
				<rect x="465.2" y="666" class="st4" width="23.1" height="20.4"/>
				<path class="st5" d="M488.2,689.1h-23.1c-1.5,0-2.7-1.2-2.7-2.7V666c0-1.5,1.2-2.7,2.7-2.7h23.1c1.5,0,2.7,1.2,2.7,2.7v20.4
					C490.9,687.9,489.7,689.1,488.2,689.1z M467.8,683.7h17.8v-15.1h-17.8V683.7z"/>
			</g>
			<g>
				<g>
					<rect x="467.2" y="578" class="st3" width="19.1" height="21.7"/>
					<path class="st5" d="M486.2,602.4h-19.1c-1.5,0-2.7-1.2-2.7-2.7V578c0-1.5,1.2-2.7,2.7-2.7h19.1c1.5,0,2.7,1.2,2.7,2.7v21.7
						C488.9,601.2,487.7,602.4,486.2,602.4z M469.8,597.1h13.7v-16.4h-13.7V597.1z"/>
				</g>
				<g>
					<path class="st5" d="M476.7,600c-1.5,0-2.7-1.2-2.7-2.7v-15.1c0-1.5,1.2-2.7,2.7-2.7c1.5,0,2.7,1.2,2.7,2.7v15.1
						C479.4,598.8,478.2,600,476.7,600z"/>
				</g>
			</g>
			<g>
				<g>
					<rect x="159.5" y="578.9" class="st3" width="19.1" height="21.7"/>
					<path class="st5" d="M178.6,603.3h-19.1c-1.5,0-2.7-1.2-2.7-2.7v-21.7c0-1.5,1.2-2.7,2.7-2.7h19.1c1.5,0,2.7,1.2,2.7,2.7v21.7
						C181.2,602.1,180,603.3,178.6,603.3z M162.2,598h13.7v-16.4h-13.7V598z"/>
				</g>
				<g>
					<path class="st5" d="M169,600.8c-1.5,0-2.7-1.2-2.7-2.7v-15.1c0-1.5,1.2-2.7,2.7-2.7c1.5,0,2.7,1.2,2.7,2.7v15.1
						C171.7,599.6,170.5,600.8,169,600.8z"/>
				</g>
			</g>
			<g>
				<g>
					<rect x="159.5" y="455.5" class="st3" width="19.1" height="21.7"/>
					<path class="st5" d="M178.6,479.9h-19.1c-1.5,0-2.7-1.2-2.7-2.7v-21.7c0-1.5,1.2-2.7,2.7-2.7h19.1c1.5,0,2.7,1.2,2.7,2.7v21.7
						C181.2,478.7,180,479.9,178.6,479.9z M162.2,474.6h13.7v-16.4h-13.7V474.6z"/>
				</g>
				<g>
					<path class="st5" d="M169,477.5c-1.5,0-2.7-1.2-2.7-2.7v-15.1c0-1.5,1.2-2.7,2.7-2.7c1.5,0,2.7,1.2,2.7,2.7v15.1
						C171.7,476.3,170.5,477.5,169,477.5z"/>
				</g>
			</g>
			<g>
				<path class="st5" d="M81.4,687.3c-1.5,0-2.7-1.2-2.7-2.7V536.2c0-1.5,1.2-2.7,2.7-2.7c1.5,0,2.7,1.2,2.7,2.7v148.4
					C84,686.1,82.8,687.3,81.4,687.3z"/>
			</g>
			<g>
				<polygon class="st6" points="230.9,686.4 107.2,686.4 120.5,633.1 214.9,633.1 				"/>
				<path class="st5" d="M230.9,689.1C230.9,689.1,230.9,689.1,230.9,689.1H107.2c-0.8,0-1.6-0.4-2.1-1c-0.5-0.6-0.7-1.5-0.5-2.3
					l13.3-53.3c0.3-1.2,1.4-2,2.6-2h94.4c1.2,0,2.2,0.8,2.6,1.9l15.8,52.9c0.2,0.4,0.3,0.8,0.3,1.2
					C233.6,687.9,232.4,689.1,230.9,689.1z M110.6,683.7h116.7l-14.4-48h-90.3L110.6,683.7z"/>
			</g>
			<g>
				<rect x="163.5" y="548.5" class="st3" width="11.1" height="15.1"/>
				<path class="st5" d="M174.6,566.3h-11.1c-1.5,0-2.7-1.2-2.7-2.7v-15.1c0-1.5,1.2-2.7,2.7-2.7h11.1c1.5,0,2.7,1.2,2.7,2.7v15.1
					C177.3,565.1,176.1,566.3,174.6,566.3z M166.1,560.9h5.8v-9.7h-5.8V560.9z"/>
			</g>
			<g>
				<path class="st5" d="M917.9,748.5H55.3c-1.5,0-2.7-1.2-2.7-2.7s1.2-2.7,2.7-2.7h862.6c1.5,0,2.7,1.2,2.7,2.7
					S919.4,748.5,917.9,748.5z"/>
			</g>
		</g>
	</g>
	<g>
		<path class="st4" d="M206.5,280c-3.9-1-7.3-3.1-10.1-6.5c-2.8-3.3-4.1-8.4-3.8-15.2c0.3-9.5,3.6-22.1,9.9-37.8
			c6.3-15.8,14.3-31.5,24.2-47.3c-7.1,0.2-12.7,1.1-16.8,2.6c-4.2,1.6-6.9,4.1-8.3,7.6c0.6,0,1.1,0.7,1.7,2.2
			c0.6,1.4,0.9,2.9,0.8,4.5c-0.1,2.5-1.3,4.5-3.6,5.9c-2.3,1.4-5.2,2-8.5,1.9c-4-0.1-7.1-1.3-9.4-3.5c-2.3-2.2-3.4-5.3-3.3-9.2
			c0.2-4.8,2.2-9.1,6.1-12.9c3.9-3.8,9.2-6.8,15.9-8.9c6.7-2.1,14.1-3,22.1-2.7c3,0.1,6.6,0.4,11,1c12.2-18,25-32.5,38.3-43.8
			c13.3-11.2,25.8-16.6,37.6-16.2c6.8,0.2,12.3,1.4,16.6,3.5l-38.6,154.7l-30.5-1l18.9-76.3c-5.1-2.6-9.9-4.5-14.2-5.8
			c-4.3-1.3-9-2.2-13.9-2.8c-8.6,17.1-15.8,34.6-21.6,52.6c-5.8,18-8.8,32.4-9.2,43.3c-0.2,5.4,0.7,9.3,2.6,12
			C215,281.6,210.4,281,206.5,280z M293.1,116.1c-6.2,3-12.7,8.9-19.6,17.5c-6.9,8.6-13.6,19.1-20.3,31.4
			c10.1,2.3,18.6,5.1,25.6,8.3L293.1,116.1z"/>
		<path class="st4" d="M324.9,241.8c-4.4-4.3-6.5-10.6-6.2-19c0.1-3.4,0.6-6.8,1.4-10.1l17.7-71.5l30.5,1l-17.7,71.5
			c-0.8,3.5-1.3,6-1.3,7.6c-0.2,4.7,2.2,7.1,7,7.2c6.5,0.2,12.7-3.7,18.5-11.7c5.9-8,10.7-17.6,14.4-28.8
			c3.8-11.2,5.8-20.9,6.1-29.1c-0.3,0.7-1.2,1.2-2.8,1.5c-1.6,0.3-2.9,0.4-4,0.4c-2.4-0.1-4.2-1.3-5.5-3.6c-1.3-2.3-1.9-4.8-1.8-7.5
			c0.1-3.4,1.3-6.1,3.6-8.1c2.3-2,5.6-3,10-2.8c4.7,0.2,8,2,10,5.5c2,3.5,2.9,8,2.7,13.3c-0.4,12.7-3.1,26.2-8,40.5
			c-4.9,14.3-12,26.4-21.4,36.3c-9.4,9.9-20.8,14.6-34.2,14.1C335.6,248.4,329.3,246.1,324.9,241.8z"/>
		<path class="st4" d="M416,235.5c-4-4.4-5.9-10.8-5.6-19.3c0.1-3.5,0.8-8.1,2.2-13.7l16.7-67.5l30.5,1L442,207.5
			c-0.6,2.1-1,4.4-1.1,6.8c-0.1,2.8,0.5,4.9,1.8,6.1c1.3,1.2,3.5,1.9,6.6,2c4.1,0.1,8-1.5,11.6-4.8c3.6-3.3,6.3-7.7,8.1-13.2
			l8.9,0.3c-5.7,15.1-12.8,25.2-21.2,30.3c-8.4,5.2-16.6,7.6-24.6,7.3C425.4,242.1,420,239.8,416,235.5z M438.9,119
			c-3.1-3.4-4.6-7.4-4.5-12c0.2-4.7,1.9-8.6,5.3-11.8c3.4-3.2,7.4-4.7,12-4.6s8.6,2,11.8,5.4c3.2,3.4,4.7,7.5,4.6,12.1
			c-0.2,4.7-2,8.6-5.4,11.7s-7.5,4.6-12.1,4.5C445.9,124.1,442.1,122.4,438.9,119z"/>
		<path class="st4" d="M490.4,280.3c-4.4-3.7-6.5-8.8-6.3-15.5c0.3-8,3.7-14.4,10.4-19c6.7-4.7,15.1-8.4,25.2-11.3l2.9-11.1
			c-7.5,7.5-16.1,11.1-25.8,10.8c-8-0.3-14.7-3.3-19.8-8.9c-5.2-5.7-7.6-14.4-7.2-26.1c0.4-10.4,2.8-21.4,7.4-32.7
			c4.6-11.4,11.1-20.9,19.6-28.6c8.5-7.7,18.5-11.3,30-11c5.8,0.2,10.1,1.3,12.8,3.4c2.8,2.1,4.1,4.7,4,8l0,1.3l2.7-10.9l30.5,1
			l-24.3,97.6c6.9-2,12.4-5.2,16.7-9.6c4.3-4.4,7.9-11,11.1-19.8l8.9,0.3c-4.2,12.4-9.7,21.5-16.4,27.1c-6.7,5.6-14.2,9.4-22.4,11.2
			l-3.7,15.1c-3.3,13.6-8.5,22.8-15.6,27.8c-7.1,4.9-15,7.2-23.8,6.9C500.4,285.9,494.8,284,490.4,280.3z M510,264.8
			c2.4-3.2,4.3-7.8,5.8-13.8l1.5-6.1c-14,4.6-21.1,10.4-21.4,17.3c-0.1,1.8,0.5,3.5,1.7,4.9c1.2,1.4,3,2.2,5.2,2.3
			C505.3,269.6,507.7,268,510,264.8z M521.5,209.9c3.5-2.9,6-6.8,7.4-11.8l12.5-49.8c0.1-1.7-0.6-3.4-1.9-5.3
			c-1.4-1.8-3.5-2.8-6.5-2.9c-5.7-0.2-10.8,2.9-15.6,9.3c-4.7,6.4-8.5,14.2-11.4,23.4c-2.9,9.2-4.4,17.3-4.6,24.3
			c-0.2,7.1,0.6,11.6,2.6,13.7c2,2,4.5,3.1,7.4,3.2C514.6,214.1,518,212.8,521.5,209.9z"/>
		<path class="st4" d="M640,218.5c-3.9-4.7-5.7-10.5-5.5-17.3c0.1-3,0.6-6.3,1.4-10c0.8-3.7,1.7-7.3,2.6-10.8
			c0.9-3.5,1.5-5.7,1.8-6.7c1.3-4.9,2.5-9.7,3.7-14.5c1.1-4.8,1.8-8.6,1.9-11.6c0.2-7.2-2.2-10.9-7.3-11.1c-3.7-0.1-7,1.6-9.9,5.1
			c-3,3.5-5.4,8.1-7.3,13.9l-16.7,67.5l-30.5-1l26.1-105.1l30.5,1l-2.7,10.9c7.3-7.7,15.7-11.3,25.2-11c7.2,0.2,12.9,2.4,17,6.5
			c4.1,4.1,6,10.2,5.7,18.2c-0.1,4.1-0.8,8.6-1.9,13.6c-1.2,5-2.8,11-4.9,18.2c-1.3,4.3-2.5,8.6-3.5,12.7c-1.1,4.1-1.6,7.4-1.7,9.8
			c-0.1,2.8,0.5,5,1.7,6.6c1.2,1.6,3.4,2.4,6.5,2.6c4.2,0.1,7.7-1.3,10.3-4.2c2.6-2.9,5.3-7.6,8.1-13.8l8.9,0.3
			c-5.8,15.4-12.1,25.6-19.2,30.6c-7,5.1-14.2,7.5-21.6,7.2C650.2,225.8,643.9,223.3,640,218.5z"/>
		<path class="st4" d="M699.2,206.3c-5.9-5.6-8.6-14.2-8.2-25.7c0.3-9.6,2.7-20.2,7-31.8s11.1-21.5,20.1-29.7
			c9-8.2,20.2-12.1,33.5-11.7c18.1,0.6,26.7,12.2,26,34.8l0,0.2c0.4,0.2,1.2,0.3,2.3,0.3c4.7,0.2,10.1-0.9,16.2-3.2
			c6.2-2.3,11.8-5.1,16.8-8.4l1.7,5.8c-4.2,4.2-9.7,7.8-16.4,10.6c-6.7,2.8-13.9,4.7-21.7,5.7c-1.6,12.8-4.8,23.9-9.8,33.4
			c-5,9.4-11.2,16.7-18.8,21.6c-7.5,5-15.6,7.3-24.2,7C713.3,214.8,705.1,211.9,699.2,206.3z M743.2,190.9c3.5-3.8,6.7-9,9.4-15.6
			c2.8-6.6,4.9-14,6.3-22.2c-3.8-1-5.6-4-5.4-9.1c0.2-5.8,2.5-9.5,7-11.2c-0.1-4.7-0.7-7.9-1.8-9.7c-1.1-1.8-3-2.7-5.8-2.8
			c-4.7-0.2-9.3,3.1-13.9,9.7c-4.6,6.6-8.4,14.6-11.4,24c-3,9.4-4.6,17.7-4.9,24.9c-0.2,6.8,0.4,11.4,1.9,13.7s4.3,3.6,8.4,3.8
			C736.3,196.5,739.7,194.7,743.2,190.9z"/>
		<path class="st4" d="M847.1,200.3c-3.9-4.7-5.7-10.5-5.5-17.3c0.1-3,0.6-6.3,1.4-10c0.8-3.7,1.7-7.3,2.6-10.8
			c0.9-3.5,1.5-5.7,1.8-6.7c1.3-4.9,2.5-9.7,3.7-14.5c1.1-4.8,1.8-8.6,1.9-11.6c0.2-7.2-2.2-10.9-7.3-11.1c-3.7-0.1-7,1.6-9.9,5.1
			c-3,3.5-5.4,8.1-7.3,13.9l-16.7,67.5l-30.5-1l26.1-105.1l30.5,1l-2.7,10.9c7.3-7.7,15.7-11.3,25.2-11c7.2,0.2,12.9,2.4,17,6.5
			c4.1,4.1,6,10.2,5.7,18.2c-0.1,4.1-0.8,8.6-1.9,13.6c-1.2,5-2.8,11-4.9,18.2c-1.3,4.3-2.5,8.6-3.5,12.7c-1.1,4.1-1.6,7.4-1.7,9.8
			c-0.1,2.8,0.5,5,1.7,6.6c1.2,1.6,3.4,2.4,6.5,2.6c4.2,0.1,7.7-1.3,10.3-4.2c2.6-2.9,5.3-7.6,8.1-13.8l8.9,0.3
			c-5.8,15.4-12.1,25.6-19.2,30.6c-7,5.1-14.2,7.5-21.6,7.2C857.2,207.5,850.9,205,847.1,200.3z"/>
	</g>
</g>
</svg>
